<svg xmlns="http://www.w3.org/2000/svg" xml:space="preserve" style="enable-background:new 0 0 129.58 164.08" viewBox="0 0 129.58 164.08"><style>.st0,.st1,.st2{fill-rule:evenodd;clip-rule:evenodd;fill:#fff}.st1,.st2{fill:#1a315d}.st2{fill:#63ace1}.st3{fill:#0d2640}.st4{font-family:&quot;OpenSans-Bold&quot;}.st5{font-size:16.2426px}.st6{font-family:&quot;OpenSans&quot;}.st7{font-size:15.5547px}</style><g id="OBJECTS"><path d="m64.47 21.1 14.38 8.3 14.37 8.3v33.2l-14.37 8.29-14.38 8.3-14.37-8.3-14.37-8.29V37.7l14.37-8.3z" class="st0"/><path d="M65.6 19.22 94.32 35.8a2.2 2.2 0 0 1 1.1 1.9v33.2c0 .87-.51 1.62-1.24 1.98L65.57 89.39c-.71.41-1.57.38-2.23-.01L34.62 72.8a2.2 2.2 0 0 1-1.1-1.9V37.7c0-.87.51-1.62 1.24-1.98L63.37 19.2a2.2 2.2 0 0 1 2.23.02zM77.74 31.3l-13.27-7.66-26.54 15.33v30.66l26.54 15.33 26.54-15.33V38.97L77.74 31.3z" class="st1"/><path d="M86.53 41.02a.94.94 0 1 1 1.88 0v26.55c0 .38-.23.71-.55.86l-11.42 6.59-11.5 6.64a.92.92 0 0 1-.95-.01L52.5 75.03l-.05-.03L41 68.39a.94.94 0 1 1 .93-1.63l11.45 6.61.05.03 11.03 6.37L75.5 73.4l11.03-6.37V41.02z" class="st1"/><path d="M64.47 57.24a2.94 2.94 0 1 0-.01-5.89 2.94 2.94 0 0 0 .01 5.89z" class="st0"/><path d="M62.64 40.29a1.57 1.57 0 1 1 3.14 0v13.97c0 .59-.32 1.1-.8 1.37l-7.45 5.21c-.71.5-1.69.32-2.18-.39-.5-.71-.32-1.69.39-2.18l6.9-4.82V40.29zM83.39 52.73a1.57 1.57 0 1 1 0 3.14h-1.66a1.57 1.57 0 0 1 0-3.14h1.66zM47.22 52.73a1.57 1.57 0 1 1 0 3.14h-1.66a1.57 1.57 0 0 1 0-3.14h1.66zM66.05 76.7a1.57 1.57 0 1 1-3.14 0v-1.96a1.57 1.57 0 1 1 3.14 0v1.96zM66.05 33.86a1.57 1.57 0 1 1-3.14 0V31.9a1.57 1.57 0 1 1 3.14 0v1.96zM56.16 71.84a1.56 1.56 0 0 1-2.14.57 1.56 1.56 0 0 1-.57-2.14l.85-1.47a1.57 1.57 0 1 1 2.72 1.58l-.86 1.46zM74.65 39.8a1.57 1.57 0 0 1-2.72-1.57l.85-1.47a1.57 1.57 0 1 1 2.72 1.58l-.85 1.46zM46.94 45.99a1.57 1.57 0 0 1 1.57-2.72l1.47.85a1.57 1.57 0 1 1-1.58 2.71l-1.46-.84zM78.97 64.48a1.57 1.57 0 1 1 1.58-2.72l1.47.85c.75.43 1.01 1.39.57 2.14a1.56 1.56 0 0 1-2.14.57l-1.48-.84zM48.51 65.33a1.57 1.57 0 0 1-1.57-2.71l1.47-.85a1.57 1.57 0 1 1 1.58 2.72l-1.48.84zM80.54 46.84a1.57 1.57 0 1 1-1.58-2.71l1.47-.85a1.56 1.56 0 0 1 2.14.57c.43.75.18 1.71-.57 2.15l-1.46.84zM53.45 38.34a1.57 1.57 0 1 1 2.71-1.58l.85 1.47a1.57 1.57 0 1 1-2.72 1.57l-.84-1.46zM71.94 70.37a1.58 1.58 0 0 1 .57-2.15 1.58 1.58 0 0 1 2.15.57l.85 1.47a1.57 1.57 0 1 1-2.72 1.57l-.85-1.46z" class="st2"/><text transform="translate(23.26 120.94)"><tspan x="0" y="0" class="st3 st4 st5">W</tspan><tspan x="13.74" y="0" class="st3 st4 st5">atch Store</tspan></text><text transform="translate(42.22 137.45)"><tspan x="0" y="0" class="st3 st6 st7">t</tspan><tspan x="5.15" y="0" class="st3 st6 st7">agline</tspan></text></g></svg>